<svg width="15" height="15" viewBox="0 0 15 15" fill="none" xmlns="http://www.w3.org/2000/svg">
<g clip-path="url(#clip0_75_116)">
<path d="M6.70801 3.17249C8.16387 2.999 9.63651 3.30676 10.9011 4.04877C12.1656 4.79079 13.1525 5.92629 13.7111 7.28187C13.7632 7.42219 13.7632 7.57655 13.7111 7.71687C13.4814 8.27374 13.1779 8.79719 12.8086 9.27312" stroke="#6A7282" stroke-width="1.25" stroke-linecap="round" stroke-linejoin="round"/>
<path d="M8.80258 8.84874C8.44896 9.19029 7.97533 9.37928 7.48371 9.37501C6.99209 9.37074 6.52181 9.17354 6.17417 8.8259C5.82653 8.47826 5.62934 8.00799 5.62507 7.51637C5.6208 7.02475 5.80979 6.55112 6.15133 6.19749" stroke="#6A7282" stroke-width="1.25" stroke-linecap="round" stroke-linejoin="round"/>
<path d="M10.9247 10.9369C10.0956 11.428 9.1706 11.735 8.21242 11.8371C7.25423 11.9392 6.28529 11.834 5.37134 11.5287C4.45738 11.2233 3.61981 10.7249 2.91545 10.0673C2.21108 9.40976 1.65641 8.60835 1.28907 7.71751C1.23698 7.57718 1.23698 7.42283 1.28907 7.28251C1.84321 5.93867 2.81824 4.81078 4.06782 4.06813" stroke="#6A7282" stroke-width="1.25" stroke-linecap="round" stroke-linejoin="round"/>
<path d="M1.25 1.25L13.75 13.75" stroke="#6A7282" stroke-width="1.25" stroke-linecap="round" stroke-linejoin="round"/>
</g>
<defs>
<clipPath id="clip0_75_116">
<rect width="15" height="15" fill="white"/>
</clipPath>
</defs>
</svg>
