<svg width="15" height="15" viewBox="0 0 15 15" fill="none" xmlns="http://www.w3.org/2000/svg">
<path d="M1.2887 7.71748C1.23661 7.57716 1.23661 7.4228 1.2887 7.28248C1.79601 6.05239 2.65715 5.00063 3.76293 4.26054C4.86872 3.52045 6.16935 3.12537 7.49995 3.12537C8.83055 3.12537 10.1312 3.52045 11.237 4.26054C12.3428 5.00063 13.2039 6.05239 13.7112 7.28248C13.7633 7.4228 13.7633 7.57716 13.7112 7.71748C13.2039 8.94757 12.3428 9.99933 11.237 10.7394C10.1312 11.4795 8.83055 11.8746 7.49995 11.8746C6.16935 11.8746 4.86872 11.4795 3.76293 10.7394C2.65715 9.99933 1.79601 8.94757 1.2887 7.71748Z" stroke="#6A7282" stroke-width="1.25" stroke-linecap="round" stroke-linejoin="round"/>
<path d="M7.5 9.375C8.53553 9.375 9.375 8.53553 9.375 7.5C9.375 6.46447 8.53553 5.625 7.5 5.625C6.46447 5.625 5.625 6.46447 5.625 7.5C5.625 8.53553 6.46447 9.375 7.5 9.375Z" stroke="#6A7282" stroke-width="1.25" stroke-linecap="round" stroke-linejoin="round"/>
</svg>
