<svg width="11" height="11" viewBox="0 0 11 11" fill="none" xmlns="http://www.w3.org/2000/svg">
<path d="M9.16671 4.58341C9.16671 6.87187 6.628 9.25521 5.7755 9.99129C5.69608 10.051 5.59941 10.0833 5.50004 10.0833C5.40067 10.0833 5.304 10.051 5.22458 9.99129C4.37208 9.25521 1.83337 6.87187 1.83337 4.58341C1.83337 3.61095 2.21968 2.67832 2.90732 1.99069C3.59495 1.30306 4.52758 0.916748 5.50004 0.916748C6.4725 0.916748 7.40513 1.30306 8.09277 1.99069C8.7804 2.67832 9.16671 3.61095 9.16671 4.58341Z" stroke="#99A1AF" stroke-width="0.916667" stroke-linecap="round" stroke-linejoin="round"/>
<path d="M5.5 5.95825C6.25939 5.95825 6.875 5.34264 6.875 4.58325C6.875 3.82386 6.25939 3.20825 5.5 3.20825C4.74061 3.20825 4.125 3.82386 4.125 4.58325C4.125 5.34264 4.74061 5.95825 5.5 5.95825Z" stroke="#99A1AF" stroke-width="0.916667" stroke-linecap="round" stroke-linejoin="round"/>
</svg>
