<svg width="17" height="17" viewBox="0 0 17 17" fill="none" xmlns="http://www.w3.org/2000/svg">
<g clip-path="url(#clip0_2_2046)">
<path d="M1.41663 6.37496C1.98021 6.37496 2.52071 6.59884 2.91923 6.99736C3.31774 7.39587 3.54163 7.93637 3.54163 8.49996C3.54163 9.06354 3.31774 9.60405 2.91923 10.0026C2.52071 10.4011 1.98021 10.625 1.41663 10.625V12.0416C1.41663 12.4173 1.56588 12.7777 1.83156 13.0434C2.09723 13.309 2.45757 13.4583 2.83329 13.4583H14.1666C14.5423 13.4583 14.9027 13.309 15.1684 13.0434C15.434 12.7777 15.5833 12.4173 15.5833 12.0416V10.625C15.0197 10.625 14.4792 10.4011 14.0807 10.0026C13.6822 9.60405 13.4583 9.06354 13.4583 8.49996C13.4583 7.93637 13.6822 7.39587 14.0807 6.99736C14.4792 6.59884 15.0197 6.37496 15.5833 6.37496V4.95829C15.5833 4.58257 15.434 4.22223 15.1684 3.95656C14.9027 3.69088 14.5423 3.54163 14.1666 3.54163H2.83329C2.45757 3.54163 2.09723 3.69088 1.83156 3.95656C1.56588 4.22223 1.41663 4.58257 1.41663 4.95829V6.37496Z" stroke="white" stroke-width="1.41667" stroke-linecap="round" stroke-linejoin="round"/>
<path d="M9.20837 3.54163V4.95829" stroke="white" stroke-width="1.41667" stroke-linecap="round" stroke-linejoin="round"/>
<path d="M9.20837 12.0416V13.4583" stroke="white" stroke-width="1.41667" stroke-linecap="round" stroke-linejoin="round"/>
<path d="M9.20837 7.79163V9.20829" stroke="white" stroke-width="1.41667" stroke-linecap="round" stroke-linejoin="round"/>
</g>
<defs>
<clipPath id="clip0_2_2046">
<rect width="17" height="17" fill="white"/>
</clipPath>
</defs>
</svg>
