<svg width="16" height="16" viewBox="0 0 16 16" fill="none" xmlns="http://www.w3.org/2000/svg">
<g clip-path="url(#clip0_157_852)">
<path d="M10.6673 14V12.6667C10.6673 11.9594 10.3864 11.2811 9.88627 10.781C9.38617 10.281 8.7079 10 8.00065 10H4.00065C3.29341 10 2.61513 10.281 2.11503 10.781C1.61494 11.2811 1.33398 11.9594 1.33398 12.6667V14" stroke="#51A2FF" stroke-width="1.33333" stroke-linecap="round" stroke-linejoin="round"/>
<path d="M6.00065 7.33333C7.47341 7.33333 8.66732 6.13943 8.66732 4.66667C8.66732 3.19391 7.47341 2 6.00065 2C4.52789 2 3.33398 3.19391 3.33398 4.66667C3.33398 6.13943 4.52789 7.33333 6.00065 7.33333Z" stroke="#51A2FF" stroke-width="1.33333" stroke-linecap="round" stroke-linejoin="round"/>
<path d="M14.666 13.9998V12.6664C14.6656 12.0756 14.4689 11.5016 14.1069 11.0346C13.7449 10.5677 13.2381 10.2341 12.666 10.0864" stroke="#51A2FF" stroke-width="1.33333" stroke-linecap="round" stroke-linejoin="round"/>
<path d="M10.666 2.08643C11.2396 2.23329 11.748 2.56689 12.1111 3.03463C12.4742 3.50237 12.6712 4.07765 12.6712 4.66976C12.6712 5.26187 12.4742 5.83715 12.1111 6.30489C11.748 6.77262 11.2396 7.10623 10.666 7.25309" stroke="#51A2FF" stroke-width="1.33333" stroke-linecap="round" stroke-linejoin="round"/>
</g>
<defs>
<clipPath id="clip0_157_852">
<rect width="16" height="16" fill="white"/>
</clipPath>
</defs>
</svg>
