<svg width="120" height="40" viewBox="0 0 120 40" fill="none" xmlns="http://www.w3.org/2000/svg">
<path d="M0 14C0 6.26801 6.26801 0 14 0H105.328C113.06 0 119.328 6.26801 119.328 14V26C119.328 33.732 113.06 40 105.328 40H14C6.26802 40 0 33.732 0 26V14Z" fill="white"/>
<path d="M49.8212 20.1666C49.8212 19.6466 49.7746 19.1466 49.6879 18.6666H42.7812V21.5066H46.7279C46.5546 22.42 46.0346 23.1933 45.2546 23.7133V25.56H47.6346C49.0213 24.28 49.8212 22.4 49.8212 20.1666Z" fill="#4285F4"/>
<path d="M42.7813 27.3334C44.7613 27.3334 46.4213 26.68 47.6346 25.56L45.2546 23.7134C44.6013 24.1534 43.768 24.42 42.7813 24.42C40.8746 24.42 39.2546 23.1334 38.6746 21.4H36.2346V23.2934C37.4413 25.6867 39.9146 27.3334 42.7813 27.3334Z" fill="#34A853"/>
<path d="M38.6745 21.3934C38.5279 20.9534 38.4412 20.4867 38.4412 20C38.4412 19.5134 38.5279 19.0467 38.6745 18.6067V16.7134H36.2345C35.7345 17.7 35.4479 18.8134 35.4479 20C35.4479 21.1867 35.7345 22.3 36.2345 23.2867L38.6745 21.3934Z" fill="#FBBC05"/>
<path d="M42.7813 15.5866C43.8613 15.5866 44.8213 15.96 45.588 16.68L47.688 14.58C46.4146 13.3933 44.7613 12.6666 42.7813 12.6666C39.9146 12.6666 37.4413 14.3133 36.2346 16.7133L38.6746 18.6066C39.2546 16.8733 40.8746 15.5866 42.7813 15.5866Z" fill="#EA4335"/>
<path d="M60.9463 14.15H68.9403V15.326H60.9463V14.15ZM59.5463 19.624H71.1103V20.814H59.5463V19.624ZM64.5443 20.45H66.0283V26.162H64.5443V20.45ZM68.2263 14.15H69.6683V15.27C69.6683 15.718 69.659 16.194 69.6403 16.698C69.631 17.202 69.589 17.7573 69.5143 18.364C69.449 18.9613 69.337 19.624 69.1783 20.352L67.7223 20.17C67.9743 19.1247 68.119 18.21 68.1563 17.426C68.203 16.642 68.2263 15.9233 68.2263 15.27V14.15ZM73.8813 13.884H82.0573V15.06H73.8813V13.884ZM72.4253 18H84.0173V19.19H72.4253V18ZM81.1333 13.884H82.5753V14.724C82.5753 15.1813 82.5613 15.7087 82.5333 16.306C82.5053 16.9033 82.4073 17.5893 82.2393 18.364L80.7973 18.21C80.9653 17.454 81.0633 16.796 81.0913 16.236C81.1193 15.676 81.1333 15.172 81.1333 14.724V13.884ZM73.7553 20.268H82.5893V23.67H75.2393V25.238H73.7833V22.578H81.1333V21.43H73.7553V20.268ZM73.7833 24.874H82.9113V26.036H73.7833V24.874Z" fill="#364153"/>
</svg>
