<svg width="120" height="40" viewBox="0 0 120 40" fill="none" xmlns="http://www.w3.org/2000/svg">
<path d="M0 14C0 6.26801 6.26801 0 14 0H105.328C113.06 0 119.328 6.26801 119.328 14V26C119.328 33.732 113.06 40 105.328 40H14C6.26802 40 0 33.732 0 26V14Z" fill="#FEE500"/>
<path d="M36.3438 13.25C32.2015 13.25 28.8438 15.8578 28.8438 19.1818C28.8438 21.275 30.0573 23.1155 31.9015 24.2165L31.1687 27.125L34.6892 24.8068C35.229 24.9646 35.7833 25.0674 36.3438 25.1135C40.486 25.1135 43.8438 22.5058 43.8438 19.1818C43.8438 15.8578 40.486 13.25 36.3438 13.25Z" fill="#3C1E1E"/>
<path d="M59.3354 14.64H60.7634C60.7634 15.592 60.6794 16.516 60.5114 17.412C60.3527 18.2987 60.0587 19.148 59.6294 19.96C59.2094 20.7627 58.6214 21.514 57.8654 22.214C57.1187 22.914 56.1621 23.558 54.9954 24.146L54.2114 23.012C55.2101 22.5173 56.0407 21.976 56.7034 21.388C57.3661 20.8 57.8887 20.17 58.2714 19.498C58.6541 18.8167 58.9247 18.0887 59.0834 17.314C59.2514 16.53 59.3354 15.6993 59.3354 14.822V14.64ZM54.9534 14.64H60.2034V15.816H54.9534V14.64ZM59.2654 17.804V18.924L54.4914 19.386L54.2954 18.112L59.2654 17.804ZM62.6114 13.352H64.0814V26.148H62.6114V13.352ZM63.7034 18.406H66.0134V19.624H63.7034V18.406ZM72.2143 14.64H73.6423C73.6423 15.592 73.5583 16.516 73.3903 17.412C73.2316 18.2987 72.9376 19.148 72.5083 19.96C72.0883 20.7627 71.5003 21.514 70.7443 22.214C69.9976 22.914 69.041 23.558 67.8743 24.146L67.0903 23.012C68.089 22.5173 68.9196 21.976 69.5823 21.388C70.245 20.8 70.7676 20.17 71.1503 19.498C71.533 18.8167 71.8036 18.0887 71.9623 17.314C72.1303 16.53 72.2143 15.6993 72.2143 14.822V14.64ZM67.8323 14.64H73.0823V15.816H67.8323V14.64ZM72.1443 17.804V18.924L67.3703 19.386L67.1743 18.112L72.1443 17.804ZM75.4903 13.352H76.9603V26.148H75.4903V13.352ZM76.5823 18.406H78.8923V19.624H76.5823V18.406ZM84.9672 20.576H86.4372V23.642H84.9672V20.576ZM85.7092 14.122C86.6145 14.122 87.4172 14.262 88.1172 14.542C88.8265 14.822 89.3865 15.2187 89.7972 15.732C90.2079 16.2453 90.4132 16.8473 90.4132 17.538C90.4132 18.238 90.2079 18.8447 89.7972 19.358C89.3865 19.8713 88.8265 20.2727 88.1172 20.562C87.4172 20.842 86.6145 20.982 85.7092 20.982C84.8039 20.982 83.9965 20.842 83.2872 20.562C82.5779 20.2727 82.0179 19.8713 81.6072 19.358C81.1965 18.8447 80.9912 18.238 80.9912 17.538C80.9912 16.8473 81.1965 16.2453 81.6072 15.732C82.0179 15.2187 82.5779 14.822 83.2872 14.542C83.9965 14.262 84.8039 14.122 85.7092 14.122ZM85.7092 15.284C85.0652 15.284 84.4959 15.3773 84.0012 15.564C83.5159 15.7413 83.1332 15.998 82.8532 16.334C82.5732 16.67 82.4332 17.0713 82.4332 17.538C82.4332 18.0047 82.5732 18.4107 82.8532 18.756C83.1332 19.092 83.5159 19.3533 84.0012 19.54C84.4959 19.7173 85.0652 19.806 85.7092 19.806C86.3439 19.806 86.9085 19.7173 87.4032 19.54C87.8979 19.3533 88.2852 19.092 88.5652 18.756C88.8452 18.4107 88.9852 18.0047 88.9852 17.538C88.9852 17.0713 88.8452 16.67 88.5652 16.334C88.2852 15.998 87.8979 15.7413 87.4032 15.564C86.9085 15.3773 86.3439 15.284 85.7092 15.284ZM79.9272 23.376H91.5192V24.58H79.9272V23.376Z" fill="#3C1E1E"/>
</svg>
