<svg width="120" height="40" viewBox="0 0 120 40" fill="none" xmlns="http://www.w3.org/2000/svg">
<path d="M0 14C0 6.26801 6.26801 0 14 0H105.344C113.076 0 119.344 6.26801 119.344 14V26C119.344 33.732 113.076 40 105.344 40H14C6.26801 40 0 33.732 0 26V14Z" fill="#03C75A"/>
<path d="M32.5605 15.1016H34.2695L39.3281 22.6621H39.3828V15.1016H40.8594V25H39.1914L34.0986 17.3848H34.0371V25H32.5605V15.1016Z" fill="white"/>
<path d="M50.87 14.668H52.312V22.13H50.87V14.668ZM50.87 21.738H51.724C52.48 21.738 53.208 21.7147 53.908 21.668C54.608 21.6213 55.35 21.5187 56.134 21.36L56.316 22.592C55.5133 22.76 54.7433 22.872 54.006 22.928C53.278 22.9747 52.5173 22.998 51.724 22.998H50.87V21.738ZM59.844 13.352H61.244V26.148H59.844V13.352ZM54.426 17.538H57.492V18.742H54.426V17.538ZM57.128 13.618H58.514V25.532H57.128V13.618ZM72.2469 13.352H73.7169V26.176H72.2469V13.352ZM66.9129 14.29C67.5476 14.29 68.1123 14.4767 68.6069 14.85C69.1109 15.2233 69.5029 15.746 69.7829 16.418C70.0629 17.09 70.2029 17.8833 70.2029 18.798C70.2029 19.722 70.0629 20.5247 69.7829 21.206C69.5029 21.878 69.1109 22.4007 68.6069 22.774C68.1123 23.138 67.5476 23.32 66.9129 23.32C66.2783 23.32 65.7089 23.138 65.2049 22.774C64.7103 22.4007 64.3183 21.878 64.0289 21.206C63.7489 20.5247 63.6089 19.722 63.6089 18.798C63.6089 17.8833 63.7489 17.09 64.0289 16.418C64.3183 15.746 64.7103 15.2233 65.2049 14.85C65.7089 14.4767 66.2783 14.29 66.9129 14.29ZM66.9129 15.62C66.5396 15.62 66.2083 15.746 65.9189 15.998C65.6389 16.25 65.4196 16.614 65.2609 17.09C65.1023 17.566 65.0229 18.1353 65.0229 18.798C65.0229 19.47 65.1023 20.044 65.2609 20.52C65.4196 20.996 65.6389 21.3647 65.9189 21.626C66.2083 21.878 66.5396 22.004 66.9129 22.004C67.2863 22.004 67.6129 21.878 67.8929 21.626C68.1729 21.3647 68.3923 20.996 68.5509 20.52C68.7096 20.044 68.7889 19.47 68.7889 18.798C68.7889 18.1353 68.7096 17.566 68.5509 17.09C68.3923 16.614 68.1729 16.25 67.8929 15.998C67.6129 15.746 67.2863 15.62 66.9129 15.62ZM85.2238 13.352H86.6938V26.176H85.2238V13.352ZM82.0598 17.986H85.6578V19.176H82.0598V17.986ZM76.5578 14.36H78.0138V17.58H81.1078V14.36H82.5498V23.04H76.5578V14.36ZM78.0138 18.742V21.85H81.1078V18.742H78.0138Z" fill="white"/>
</svg>
